<?xml version="1.0" standalone="no"?>
<!DOCTYPE svg PUBLIC "-//W3C//DTD SVG 20010904//EN"
 "http://www.w3.org/TR/2001/REC-SVG-20010904/DTD/svg10.dtd">
<svg version="1.0" xmlns="http://www.w3.org/2000/svg"
 width="576.000000pt" height="288.000000pt" viewBox="0 0 576.000000 288.000000"
 preserveAspectRatio="xMidYMid meet">

<g transform="translate(0.000000,288.000000) scale(0.100000,-0.100000)"
fill="#000000" stroke="none">
<path d="M393 2803 c-20 -7 -15 -31 7 -38 26 -8 26 -29 0 -22 -11 3 -18 1 -14
-4 9 -15 41 -10 48 6 4 10 -3 20 -19 27 -25 11 -24 34 2 24 8 -3 11 -1 8 4 -7
11 -13 11 -32 3z"/>
<path d="M910 2769 c0 -38 1 -40 28 -37 20 2 28 9 30 27 2 13 0 27 -5 32 -5 5
-9 -3 -8 -18 0 -18 -6 -29 -17 -31 -14 -3 -18 3 -18 26 0 17 6 33 13 35 7 3 5
6 -5 6 -14 1 -18 -7 -18 -40z"/>
<path d="M1441 2768 c1 -24 3 -35 6 -26 2 9 12 19 21 21 15 4 15 5 0 6 -10 0
-18 7 -18 15 0 8 8 17 18 19 13 4 11 5 -5 6 -21 1 -23 -3 -22 -41z"/>
<path d="M1790 2795 c-10 -12 -7 -17 14 -26 33 -16 34 -33 0 -26 -16 3 -22 1
-16 -5 13 -13 44 -7 49 9 3 7 -7 18 -21 24 -26 12 -26 35 1 25 8 -3 11 -1 8 4
-9 14 -21 12 -35 -5z"/>
<path d="M1953 2798 c-5 -7 -7 -26 -3 -43 6 -29 7 -28 11 13 5 47 5 47 -8 30z"/>
<path d="M2437 2803 c-10 -9 -9 -23 1 -23 5 0 9 7 9 15 0 17 -1 18 -10 8z"/>
<path d="M2864 2798 c-4 -6 -3 -8 4 -4 22 13 23 -16 1 -40 l-22 -24 29 1 c23
0 25 2 11 8 -17 6 -17 8 -3 20 9 7 16 19 16 26 0 17 -28 27 -36 13z"/>
<path d="M3040 2799 c-12 -9 -12 -10 4 -5 13 5 17 2 13 -9 -4 -8 -2 -17 4 -20
15 -10 -1 -27 -20 -20 -12 5 -13 3 -4 -6 21 -21 44 -3 37 28 -9 37 -16 44 -34
32z"/>
<path d="M3160 2793 c0 -13 5 -23 10 -23 13 0 13 11 0 30 -8 12 -10 11 -10 -7z"/>
<path d="M3255 2794 c-19 -19 -16 -43 6 -57 37 -23 69 29 37 61 -16 16 -23 15
-43 -4z m43 -27 c3 -22 -1 -27 -18 -27 -26 0 -37 25 -20 45 18 22 34 13 38
-18z"/>
<path d="M3330 2770 c0 -32 4 -40 18 -40 41 0 57 51 23 70 -33 17 -41 11 -41
-30z m40 15 c15 -18 6 -45 -15 -45 -10 0 -15 10 -15 30 0 33 11 38 30 15z"/>
<path d="M3408 2803 c6 -2 13 -21 13 -41 2 -34 2 -35 6 -7 3 17 9 36 15 43 8
9 4 12 -18 11 -16 0 -23 -3 -16 -6z"/>
<path d="M3471 2768 c1 -24 3 -35 6 -25 2 9 9 17 15 17 6 0 17 -8 25 -17 13
-16 13 -16 4 4 -8 15 -8 24 -1 28 16 10 -8 35 -31 35 -16 0 -19 -7 -18 -42z
m42 17 c1 -5 -6 -11 -15 -13 -11 -2 -18 3 -18 13 0 17 30 18 33 0z"/>
<path d="M451 2765 c0 -22 3 -33 6 -25 2 8 7 22 10 30 3 11 8 9 18 -10 8 -14
14 -20 15 -14 0 5 -7 19 -15 30 -8 10 -15 15 -15 9 0 -5 -5 -3 -10 5 -7 11
-10 4 -9 -25z"/>
<path d="M1380 2770 c0 -35 -16 -40 -23 -7 -5 19 -5 19 -4 -3 1 -15 9 -26 20
-28 14 -3 17 4 17 32 0 20 -2 36 -5 36 -3 0 -5 -13 -5 -30z"/>
<path d="M1503 2765 c0 -22 2 -30 4 -17 2 12 2 30 0 40 -3 9 -5 -1 -4 -23z"/>
<path d="M2211 2784 c0 -11 3 -14 6 -6 3 7 2 16 -1 19 -3 4 -6 -2 -5 -13z"/>
<path d="M2240 2783 c0 -14 2 -15 9 -4 7 11 10 11 14 -3 5 -15 5 -15 3 0 -2
24 -26 30 -26 7z"/>
<path d="M2281 2769 c-6 -18 -9 -34 -7 -36 2 -2 9 10 15 28 6 18 9 34 7 36 -2
2 -9 -10 -15 -28z"/>
<path d="M2629 2775 c-2 -17 -9 -29 -16 -27 -7 1 -13 -2 -13 -8 0 -5 7 -10 15
-10 16 0 30 40 22 62 -2 7 -6 0 -8 -17z"/>
<path d="M2915 2781 c-8 -26 5 -53 24 -49 10 2 16 14 17 33 1 30 1 30 -3 2 -5
-36 -29 -30 -26 7 2 30 -3 34 -12 7z"/>
<path d="M2985 2790 c-3 -5 -2 -10 4 -10 5 0 12 -12 14 -27 3 -23 4 -21 6 10
1 35 -11 49 -24 27z"/>
<path d="M3206 2784 c-4 -9 -4 -19 -1 -22 3 -3 6 1 6 9 1 8 5 1 9 -16 8 -30 8
-30 9 8 1 38 -12 50 -23 21z"/>
<path d="M3551 2768 c-6 -17 -9 -34 -6 -36 3 -3 5 0 5 6 0 7 9 12 20 12 11 0
20 -5 20 -12 0 -6 3 -9 6 -5 3 3 3 15 -1 28 -6 16 -9 18 -16 8 -4 -7 -11 -10
-15 -6 -4 3 -1 13 6 22 7 9 8 15 2 15 -5 0 -15 -14 -21 -32z"/>
<path d="M3611 2763 c1 -37 2 -37 8 -8 l6 29 22 -29 22 -30 0 40 c-1 33 -2 36
-8 15 l-7 -25 -12 23 c-19 33 -32 27 -31 -15z"/>
<path d="M515 2779 c-4 -6 -5 -12 -2 -15 2 -3 7 2 10 11 7 17 1 20 -8 4z"/>
<path d="M600 2766 c0 -35 15 -40 16 -5 1 16 -3 29 -7 29 -5 0 -9 -11 -9 -24z"/>
<path d="M738 2765 c2 -15 0 -25 -7 -25 -7 0 -9 5 -6 10 3 6 1 10 -4 10 -6 0
-11 -7 -11 -15 0 -8 9 -15 20 -15 15 0 20 7 20 24 0 14 -4 27 -9 30 -4 3 -6
-6 -3 -19z"/>
<path d="M824 2775 c-9 -23 3 -45 23 -44 17 1 17 2 0 6 -14 4 -18 12 -14 29 5
27 -1 32 -9 9z"/>
<path d="M990 2775 c-16 -19 -5 -47 17 -43 22 4 29 43 9 51 -8 3 -20 -1 -26
-8z m30 -21 c0 -8 -7 -14 -15 -14 -15 0 -21 21 -9 33 10 9 24 -2 24 -19z"/>
<path d="M1149 2758 c4 -28 6 -29 9 -9 2 13 0 27 -5 32 -6 6 -7 -3 -4 -23z"/>
<path d="M1265 2780 c-3 -6 -1 -9 6 -8 7 2 15 -5 17 -14 2 -12 -3 -18 -13 -18
-10 0 -13 5 -9 12 4 7 3 8 -5 4 -16 -10 -4 -26 20 -26 16 0 20 6 17 27 -3 28
-22 41 -33 23z"/>
<path d="M1675 2781 c-3 -7 0 -8 9 -5 11 4 16 0 16 -15 0 -13 -6 -21 -17 -21
-16 0 -16 2 -3 11 10 7 11 9 2 7 -23 -6 -18 -23 6 -26 20 -3 23 0 20 24 -3 29
-22 43 -33 25z"/>
<path d="M1720 2780 c0 -5 5 -10 10 -10 6 0 10 5 10 10 0 6 -4 10 -10 10 -5 0
-10 -4 -10 -10z"/>
<path d="M2008 2765 c2 -15 0 -25 -7 -25 -7 0 -9 5 -5 11 4 7 2 10 -5 8 -19
-7 -14 -24 9 -27 16 -3 20 2 20 22 0 14 -4 27 -9 30 -4 3 -6 -6 -3 -19z"/>
<path d="M2084 2765 c-20 -31 -49 -34 -41 -5 3 11 1 18 -4 14 -14 -8 -10 -34
6 -40 8 -4 22 -1 30 6 10 9 15 9 15 1 0 -6 9 -11 20 -11 11 0 20 4 20 10 0 5
-7 7 -16 3 -14 -5 -16 -1 -12 20 6 33 3 34 -18 2z"/>
<path d="M2353 2783 c-7 -3 -13 -17 -12 -31 0 -15 3 -20 6 -12 14 42 16 44 23
15 l6 -30 5 27 c6 27 -5 39 -28 31z"/>
<path d="M2482 2760 c0 -19 2 -27 5 -17 2 9 2 25 0 35 -3 9 -5 1 -5 -18z"/>
<path d="M2739 2758 c4 -28 6 -29 9 -9 2 13 0 27 -5 32 -6 6 -7 -3 -4 -23z"/>
<path d="M3700 2753 c-3 -23 -2 -39 3 -34 5 5 7 24 5 42 -3 33 -4 33 -8 -8z"/>
<path d="M570 2755 c0 -14 2 -25 4 -25 2 0 6 11 8 25 3 14 1 25 -3 25 -5 0 -9
-11 -9 -25z"/>
<path d="M631 2773 c-1 -6 2 -19 5 -27 6 -15 8 -15 20 1 13 17 13 17 14 -1 0
-15 3 -17 11 -9 9 9 8 16 -4 27 -14 14 -16 14 -22 -2 -7 -15 -8 -15 -15 3 -5
11 -9 15 -9 8z"/>
<path d="M771 2773 c-2 -20 11 -43 20 -37 5 3 9 10 9 15 0 6 -4 8 -9 4 -5 -3
-12 3 -14 12 -3 10 -5 13 -6 6z"/>
<path d="M850 2770 c0 -5 5 -10 11 -10 5 0 7 5 4 10 -3 6 -8 10 -11 10 -2 0
-4 -4 -4 -10z"/>
<path d="M1044 2767 c3 -10 6 -24 6 -30 0 -7 7 -3 15 7 13 17 15 18 15 3 0 -9
5 -17 10 -17 6 0 10 4 10 9 0 5 3 18 6 28 5 15 4 16 -5 3 -9 -12 -12 -13 -20
-1 -7 11 -9 11 -14 0 -5 -12 -8 -11 -17 1 -10 13 -11 12 -6 -3z"/>
<path d="M1122 2755 c0 -16 2 -22 5 -12 2 9 2 23 0 30 -3 6 -5 -1 -5 -18z"/>
<path d="M1200 2773 c1 -10 30 -49 30 -41 0 4 3 15 6 25 5 15 4 15 -5 3 -9
-13 -11 -13 -11 3 0 9 -4 17 -10 17 -5 0 -10 -3 -10 -7z"/>
<path d="M1310 2755 c0 -14 2 -25 4 -25 2 0 6 11 8 25 3 14 1 25 -3 25 -5 0
-9 -11 -9 -25z"/>
<path d="M1521 2773 c-2 -24 12 -43 30 -43 14 0 19 7 18 28 -2 23 -2 24 -6 5
-2 -13 -9 -23 -14 -23 -5 0 -14 10 -19 23 -5 12 -9 17 -9 10z"/>
<path d="M1585 2755 c0 -16 3 -20 12 -14 7 7 13 5 16 -3 2 -7 4 -1 3 13 -1 33
-31 37 -31 4z"/>
<path d="M1854 2755 c1 -13 9 -21 24 -23 19 -3 22 1 21 25 -2 23 -2 24 -6 6
-5 -27 -30 -31 -36 -5 -3 13 -4 12 -3 -3z"/>
<path d="M1910 2755 c0 -14 2 -25 4 -25 2 0 6 11 8 25 3 14 1 25 -3 25 -5 0
-9 -11 -9 -25z"/>
<path d="M2651 2762 c-1 -26 25 -40 42 -22 9 10 7 11 -10 6 -17 -6 -22 -2 -26
16 l-4 23 -2 -23z"/>
<path d="M2712 2755 c0 -16 2 -22 5 -12 2 9 2 23 0 30 -3 6 -5 -1 -5 -18z"/>
<path d="M2774 2755 c1 -12 9 -21 21 -22 14 -1 15 0 3 3 -9 3 -19 13 -21 22
-3 12 -4 11 -3 -3z"/>
<path d="M2800 2770 c0 -5 5 -10 11 -10 5 0 7 5 4 10 -3 6 -8 10 -11 10 -2 0
-4 -4 -4 -10z"/>
<path d="M3120 2756 c0 -14 4 -27 8 -30 5 -3 6 8 4 25 -5 35 -12 38 -12 5z"/>
<path d="M1180 2765 c0 -5 5 -17 10 -25 5 -8 10 -10 10 -5 0 6 -5 17 -10 25
-5 8 -10 11 -10 5z"/>
<path d="M2311 2754 c0 -11 3 -14 6 -6 3 7 2 16 -1 19 -3 4 -6 -2 -5 -13z"/>
<path d="M2220 2745 c0 -8 5 -15 10 -15 6 0 10 7 10 15 0 8 -4 15 -10 15 -5 0
-10 -7 -10 -15z"/>
<path d="M3180 2751 c0 -5 5 -13 10 -16 6 -3 10 -2 10 4 0 5 -4 13 -10 16 -5
3 -10 2 -10 -4z"/>
<path d="M520 2736 c7 -7 13 -7 20 0 6 6 3 10 -10 10 -13 0 -16 -4 -10 -10z"/>
<path d="M2180 2736 c0 -8 4 -17 9 -20 5 -4 7 3 4 14 -6 23 -13 26 -13 6z"/>
<path d="M1573 2633 c659 -2 1735 -2 2390 0 656 1 117 2 -1198 2 -1314 0
-1851 -1 -1192 -2z"/>
<path d="M4640 2544 c0 -14 -3 -14 -15 -4 -12 10 -18 10 -32 -1 -13 -11 -17
-11 -20 -1 -3 6 -14 12 -26 12 -20 0 -20 0 -1 -15 17 -13 11 -14 -63 -15 -45
0 -85 5 -88 10 -3 6 -12 10 -18 10 -7 0 -6 -4 3 -10 20 -12 6 -23 -19 -15 -12
4 -18 11 -15 17 5 7 1 9 -9 5 -9 -3 -19 -2 -22 3 -4 6 -12 10 -18 10 -7 0 2
-11 18 -24 l30 -24 -35 -9 -35 -10 55 -7 c63 -8 110 -24 110 -38 0 -5 3 -7 8
-5 4 3 13 -1 19 -9 14 -14 0 -30 -16 -20 -5 3 -12 -1 -15 -10 -9 -24 -7 -28 9
-14 10 9 15 9 15 1 0 -6 5 -11 11 -11 6 0 9 7 5 15 -8 21 13 19 52 -5 l34 -21
-25 -32 c-20 -27 -22 -34 -11 -45 16 -15 41 -16 49 -2 4 6 11 8 16 5 5 -3 6 2
2 11 -9 23 22 44 64 44 18 0 33 5 33 10 0 6 13 10 28 10 16 0 46 8 67 19 32
15 36 20 20 24 -15 3 -13 5 8 6 18 1 27 6 27 17 0 13 3 14 14 5 10 -9 19 -7
37 9 16 14 18 18 7 14 -10 -3 -18 -1 -18 4 0 6 8 13 18 15 16 4 16 5 0 6 -22
1 -24 21 -3 21 8 0 15 5 15 10 0 6 -7 10 -15 10 -8 0 -15 6 -15 13 0 9 -2 9
-8 0 -5 -8 -13 -9 -22 -3 -13 9 -13 10 0 11 30 3 -86 17 -147 18 -52 1 -63 -2
-63 -15z m75 -14 c3 -5 -1 -10 -9 -10 -9 0 -16 5 -16 10 0 6 4 10 9 10 6 0 13
-4 16 -10z m130 -18 c-7 -8 -35 7 -35 18 0 6 7 6 20 -2 10 -7 17 -14 15 -16z
m26 -19 c0 -5 2 -18 3 -31 2 -13 -2 -21 -8 -19 -13 4 -17 57 -5 57 5 0 9 -3
10 -7z"/>
<path d="M4065 2540 c-4 -6 -21 -8 -38 -5 -18 3 -48 1 -67 -3 l-35 -9 38 -4
c20 -3 37 -1 37 3 0 4 4 8 10 8 5 0 7 -7 3 -16 -5 -13 -3 -14 13 -6 22 12 87
-9 67 -21 -7 -4 -10 -14 -6 -23 4 -11 9 -12 19 -3 8 6 11 16 8 21 -3 5 0 9 7
7 31 -4 49 2 49 16 0 8 5 15 11 15 5 0 7 -4 4 -10 -3 -5 -1 -10 4 -10 6 0 10
-5 9 -11 -4 -15 36 -29 53 -18 10 6 5 9 -18 9 -28 0 -31 3 -27 25 2 14 1 25
-3 24 -5 -1 -24 -1 -43 0 -27 1 -31 4 -20 11 11 7 4 10 -27 10 -23 0 -45 -5
-48 -10z m65 -30 c0 -5 -6 -10 -14 -10 -8 0 -18 5 -21 10 -3 6 3 10 14 10 12
0 21 -4 21 -10z"/>
<path d="M1100 2520 c-11 -7 -1 -10 35 -10 36 0 46 3 35 10 -8 5 -24 10 -35
10 -11 0 -27 -5 -35 -10z"/>
<path d="M1613 2523 c-43 -8 -25 -26 21 -21 32 4 49 1 60 -10 11 -12 16 -13
16 -4 0 11 -62 45 -72 41 -2 -1 -13 -4 -25 -6z"/>
<path d="M4255 2520 c27 -12 35 -12 35 0 0 6 -12 10 -27 9 -25 0 -26 -1 -8 -9z"/>
<path d="M4920 2520 c0 -12 8 -12 35 0 18 8 17 9 -7 9 -16 1 -28 -3 -28 -9z"/>
<path d="M3894 2505 c11 -8 25 -15 32 -15 7 0 14 -5 16 -12 3 -9 6 -9 12 0 4
7 2 12 -6 12 -9 0 -9 3 2 10 11 8 8 9 -12 6 -15 -3 -30 0 -33 5 -4 5 -12 9
-18 9 -7 0 -3 -7 7 -15z"/>
<path d="M520 2500 c0 -5 14 -7 33 -4 24 4 28 3 17 -5 -17 -12 -10 -14 15 -5
13 5 14 8 3 15 -18 12 -68 11 -68 -1z"/>
<path d="M630 2500 c0 -5 5 -10 10 -10 6 0 10 5 10 10 0 6 -4 10 -10 10 -5 0
-10 -4 -10 -10z"/>
<path d="M1744 2485 c11 -8 22 -12 25 -9 6 6 -19 24 -34 24 -5 -1 -1 -7 9 -15z"/>
<path d="M3780 2490 c14 -4 34 -8 45 -8 16 0 15 2 -5 8 -14 4 -34 8 -45 8 -16
0 -15 -2 5 -8z"/>
<path d="M4008 2493 c-24 -6 -23 -19 2 -19 11 0 22 6 24 13 6 13 3 14 -26 6z"/>
<path d="M3654 2481 c3 -5 15 -7 26 -4 28 7 25 13 -6 13 -14 0 -23 -4 -20 -9z"/>
<path d="M3883 2462 c2 -14 10 -28 18 -30 11 -3 11 -2 -1 7 -12 8 -11 11 7 18
22 8 22 8 -3 20 -23 11 -24 10 -21 -15z"/>
<path d="M4060 2471 c0 -6 4 -13 10 -16 6 -3 7 1 4 9 -7 18 -14 21 -14 7z"/>
<path d="M1258 2463 c6 -2 18 -2 25 0 6 3 1 5 -13 5 -14 0 -19 -2 -12 -5z"/>
<path d="M3616 2461 c-19 -7 -18 -8 4 -14 13 -3 26 -4 29 -2 2 3 -2 5 -10 5
-11 0 -11 2 1 10 18 11 3 12 -24 1z"/>
<path d="M3820 2460 c0 -5 5 -10 11 -10 5 0 7 5 4 10 -3 6 -8 10 -11 10 -2 0
-4 -4 -4 -10z"/>
<path d="M1193 2453 c9 -2 23 -2 30 0 6 3 -1 5 -18 5 -16 0 -22 -2 -12 -5z"/>
<path d="M3778 2453 c6 -2 18 -2 25 0 6 3 1 5 -13 5 -14 0 -19 -2 -12 -5z"/>
<path d="M2338 2443 c7 -3 16 -2 19 1 4 3 -2 6 -13 5 -11 0 -14 -3 -6 -6z"/>
<path d="M3668 2443 c6 -2 18 -2 25 0 6 3 1 5 -13 5 -14 0 -19 -2 -12 -5z"/>
<path d="M1515 2430 c-3 -5 -1 -10 4 -10 6 0 11 5 11 10 0 6 -2 10 -4 10 -3 0
-8 -4 -11 -10z"/>
<path d="M1850 2436 c0 -2 7 -6 15 -10 8 -3 15 -1 15 4 0 6 -7 10 -15 10 -8 0
-15 -2 -15 -4z"/>
<path d="M1086 2421 c-3 -4 4 -7 14 -6 27 2 33 10 10 12 -11 1 -22 -2 -24 -6z"/>
<path d="M1808 2423 c7 -3 16 -2 19 1 4 3 -2 6 -13 5 -11 0 -14 -3 -6 -6z"/>
<path d="M2240 2420 c0 -5 7 -7 15 -4 8 4 15 8 15 10 0 2 -7 4 -15 4 -8 0 -15
-4 -15 -10z"/>
<path d="M3745 2420 c3 -5 8 -10 11 -10 2 0 4 5 4 10 0 6 -5 10 -11 10 -5 0
-7 -4 -4 -10z"/>
<path d="M3805 2420 c-16 -7 -17 -9 -3 -9 9 -1 20 4 23 9 7 11 7 11 -20 0z"/>
<path d="M4010 2414 c0 -8 5 -12 10 -9 6 4 8 11 5 16 -9 14 -15 11 -15 -7z"/>
<path d="M4081 2414 c0 -11 3 -14 6 -6 3 7 2 16 -1 19 -3 4 -6 -2 -5 -13z"/>
<path d="M4110 2410 c0 -5 7 -7 15 -4 8 4 15 8 15 10 0 2 -7 4 -15 4 -8 0 -15
-4 -15 -10z"/>
<path d="M1395 2400 c3 -5 8 -10 11 -10 2 0 4 5 4 10 0 6 -5 10 -11 10 -5 0
-7 -4 -4 -10z"/>
<path d="M1462 2396 c7 -8 15 -12 17 -11 5 6 -10 25 -20 25 -5 0 -4 -6 3 -14z"/>
<path d="M3588 2392 c9 -10 19 -17 21 -16 6 5 -20 34 -30 34 -5 0 -1 -8 9 -18z"/>
<path d="M2768 2393 c7 -3 16 -2 19 1 4 3 -2 6 -13 5 -11 0 -14 -3 -6 -6z"/>
<path d="M746 2376 c3 -8 13 -12 25 -9 16 5 18 8 7 14 -20 13 -38 11 -32 -5z"/>
<path d="M3988 2383 c7 -3 16 -2 19 1 4 3 -2 6 -13 5 -11 0 -14 -3 -6 -6z"/>
<path d="M4230 2380 c0 -12 28 -25 36 -17 3 3 -4 10 -15 17 -15 7 -21 7 -21 0z"/>
<path d="M630 2370 c19 -13 30 -13 30 0 0 6 -10 10 -22 10 -19 0 -20 -2 -8
-10z"/>
<path d="M3795 2370 c3 -5 8 -10 11 -10 2 0 4 5 4 10 0 6 -5 10 -11 10 -5 0
-7 -4 -4 -10z"/>
<path d="M4088 2373 c6 -2 18 -2 25 0 6 3 1 5 -13 5 -14 0 -19 -2 -12 -5z"/>
<path d="M580 2359 c-14 -4 -19 -7 -12 -8 7 -1 10 -5 7 -11 -3 -5 -1 -10 4
-10 6 0 11 4 11 9 0 5 8 11 18 13 9 2 13 6 7 9 -5 3 -21 3 -35 -2z"/>
<path d="M3717 2361 c-17 -6 -17 -8 -3 -20 13 -11 16 -11 16 2 0 8 6 18 13 20
6 3 8 5 2 6 -5 0 -18 -4 -28 -8z"/>
<path d="M3854 2355 c22 -17 40 -20 32 -6 -3 5 -16 11 -28 14 -22 6 -22 5 -4
-8z"/>
<path d="M4148 2358 c5 -5 16 -8 23 -6 8 3 3 7 -10 11 -17 4 -21 3 -13 -5z"/>
<path d="M4315 2330 c3 -5 8 -10 11 -10 2 0 4 5 4 10 0 6 -5 10 -11 10 -5 0
-7 -4 -4 -10z"/>
<path d="M4018 2323 c6 -2 18 -2 25 0 6 3 1 5 -13 5 -14 0 -19 -2 -12 -5z"/>
<path d="M4841 2321 c-10 -6 -9 -10 3 -14 8 -3 18 -2 21 3 8 13 -9 20 -24 11z"/>
<path d="M4466 2307 c3 -10 9 -15 12 -12 3 3 0 11 -7 18 -10 9 -11 8 -5 -6z"/>
<path d="M4610 2305 c0 -8 2 -15 4 -15 2 0 6 7 10 15 3 8 1 15 -4 15 -6 0 -10
-7 -10 -15z"/>
<path d="M4250 2286 c0 -2 7 -7 16 -10 8 -3 12 -2 9 4 -6 10 -25 14 -25 6z"/>
<path d="M449 2278 c-6 -12 -4 -48 2 -48 5 0 9 11 9 25 0 21 -6 33 -11 23z"/>
<path d="M2957 2259 c7 -7 15 -10 18 -7 3 3 -2 9 -12 12 -14 6 -15 5 -6 -5z"/>
<path d="M3275 2250 c-3 -6 2 -10 12 -10 10 0 33 -9 51 -20 19 -12 31 -16 27
-10 -9 15 4 12 21 -4 10 -11 11 -15 2 -18 -7 -3 -5 -7 6 -11 11 -5 15 -3 10 5
-5 8 -2 9 9 5 27 -10 20 -2 -23 28 -22 15 -43 25 -46 22 -4 -3 -19 0 -35 8
-18 10 -30 11 -34 5z"/>
<path d="M3107 2226 c-3 -8 -2 -18 3 -21 13 -8 20 9 11 24 -6 10 -10 9 -14 -3z"/>
<path d="M5071 2200 c14 -31 19 -36 19 -24 0 6 -7 19 -16 30 -14 18 -14 18 -3
-6z"/>
<path d="M646 2185 c-3 -8 5 -15 20 -18 29 -5 29 -6 5 15 -15 13 -21 14 -25 3z"/>
<path d="M3000 2184 l-35 -14 35 6 c36 6 46 11 39 18 -2 2 -20 -3 -39 -10z"/>
<path d="M515 2180 c-3 -5 -2 -10 4 -10 5 0 13 5 16 10 3 6 2 10 -4 10 -5 0
-13 -4 -16 -10z"/>
<path d="M2185 2170 c3 -5 8 -10 11 -10 2 0 4 5 4 10 0 6 -5 10 -11 10 -5 0
-7 -4 -4 -10z"/>
<path d="M3438 2151 c12 -12 22 -26 22 -31 0 -6 10 -10 23 -9 14 0 17 2 7 6
-8 3 -19 12 -23 19 -4 8 -18 19 -30 25 l-22 11 23 -21z"/>
<path d="M795 2150 c3 -5 8 -10 11 -10 2 0 4 5 4 10 0 6 -5 10 -11 10 -5 0 -7
-4 -4 -10z"/>
<path d="M5090 2141 c0 -10 19 -25 25 -20 1 2 -3 10 -11 17 -8 7 -14 8 -14 3z"/>
<path d="M1675 2129 c-4 -6 -5 -12 -2 -15 2 -3 7 2 10 11 7 17 1 20 -8 4z"/>
<path d="M1758 2113 c7 -3 16 -2 19 1 4 3 -2 6 -13 5 -11 0 -14 -3 -6 -6z"/>
<path d="M1540 2100 c0 -5 9 -14 19 -20 25 -13 31 -13 31 0 0 6 -7 10 -15 10
-8 0 -15 5 -15 10 0 6 -4 10 -10 10 -5 0 -10 -4 -10 -10z"/>
<path d="M3506 2101 c-3 -5 1 -11 9 -15 8 -3 15 -1 15 4 0 13 -18 22 -24 11z"/>
<path d="M658 2093 c7 -3 16 -2 19 1 4 3 -2 6 -13 5 -11 0 -14 -3 -6 -6z"/>
<path d="M4230 2080 c-6 -11 -8 -20 -6 -20 3 0 10 9 16 20 6 11 8 20 6 20 -3
0 -10 -9 -16 -20z"/>
<path d="M495 2070 c-7 -12 2 -12 30 0 19 8 19 9 -2 9 -12 1 -25 -3 -28 -9z"/>
<path d="M455 2060 c3 -5 8 -10 11 -10 2 0 4 5 4 10 0 6 -5 10 -11 10 -5 0 -7
-4 -4 -10z"/>
<path d="M757 2053 c3 -7 6 -13 8 -13 2 0 5 6 8 13 3 8 -1 14 -8 14 -7 0 -11
-6 -8 -14z"/>
<path d="M4340 2060 c-9 -6 -10 -10 -3 -10 6 0 15 5 18 10 8 12 4 12 -15 0z"/>
<path d="M615 2050 c3 -5 8 -10 11 -10 2 0 4 5 4 10 0 6 -5 10 -11 10 -5 0 -7
-4 -4 -10z"/>
<path d="M570 2046 c0 -2 7 -9 15 -16 13 -11 14 -10 9 4 -5 14 -24 23 -24 12z"/>
<path d="M1855 2039 c-4 -6 -5 -12 -2 -15 2 -3 7 2 10 11 7 17 1 20 -8 4z"/>
<path d="M1440 2020 c0 -7 -9 -9 -22 -5 -18 5 -20 4 -8 -4 13 -9 13 -11 -2
-12 -31 -3 -36 -4 -42 -10 -10 -9 -57 2 -50 12 11 18 -9 9 -27 -13 -23 -26
-23 -26 -3 -24 12 1 17 -8 18 -32 1 -20 -4 -32 -12 -32 -7 0 -10 5 -7 10 3 6
-1 10 -9 10 -9 0 -16 -6 -16 -12 0 -9 -4 -8 -10 2 -8 13 -10 12 -10 -3 0 -11
9 -21 21 -24 16 -4 17 -8 7 -14 -7 -5 -8 -9 -2 -9 6 0 25 14 42 30 34 32 58
40 49 15 -4 -8 -1 -17 5 -21 6 -4 8 -3 4 4 -3 6 -2 13 3 16 5 3 11 -4 14 -15
4 -16 11 -20 26 -16 12 3 19 1 15 -4 -3 -5 0 -10 5 -10 20 -3 26 -5 60 -23 25
-13 36 -15 45 -6 8 8 6 10 -9 5 -15 -5 -17 -4 -6 3 8 6 21 8 29 5 11 -5 13 -1
7 15 -5 17 -2 22 10 22 9 0 19 -9 22 -20 3 -11 10 -20 15 -20 6 0 8 9 5 20 -4
14 0 20 11 21 14 0 13 2 -3 9 -19 8 -19 9 2 9 12 1 24 -5 26 -11 4 -10 6 -10
6 0 1 15 27 16 37 0 4 -6 3 -8 -4 -4 -6 3 -13 2 -16 -3 -4 -5 -2 -12 4 -16 17
-11 12 -35 -6 -28 -11 4 -15 2 -13 -6 7 -20 23 -16 36 10 10 18 13 20 13 7 0
-27 18 -21 35 12 17 33 20 53 4 30 -8 -12 -10 -12 -8 5 3 42 -2 52 -39 68 -47
21 -58 21 -65 3 -7 -19 1 -26 30 -26 14 0 21 -4 18 -10 -7 -12 -55 -13 -55 -2
0 5 -11 14 -24 21 -20 11 -34 11 -78 0 -29 -7 -55 -16 -58 -20 -6 -8 -90 30
-90 40 0 3 22 15 48 26 30 14 42 24 34 29 -7 4 -12 2 -12 -4z m95 -150 c3 -5
1 -10 -4 -10 -6 0 -11 5 -11 10 0 6 2 10 4 10 3 0 8 -4 11 -10z"/>
<path d="M623 2013 c9 -2 23 -2 30 0 6 3 -1 5 -18 5 -16 0 -22 -2 -12 -5z"/>
<path d="M1358 2013 c7 -3 16 -2 19 1 4 3 -2 6 -13 5 -11 0 -14 -3 -6 -6z"/>
<path d="M2235 2011 c-3 -5 -1 -12 5 -16 5 -3 10 1 10 9 0 18 -6 21 -15 7z"/>
<path d="M726 2001 c-3 -4 -17 -7 -32 -5 -14 1 -23 0 -20 -4 12 -11 51 -9 64
5 7 7 9 13 3 13 -5 0 -12 -4 -15 -9z"/>
<path d="M976 1995 c-3 -9 -9 -14 -13 -12 -5 3 -8 -6 -8 -19 0 -13 3 -24 8
-24 4 0 7 8 7 18 0 10 5 23 12 30 6 6 9 14 6 17 -3 3 -8 -1 -12 -10z"/>
<path d="M5040 2006 c0 -2 7 -7 16 -10 8 -3 12 -2 9 4 -6 10 -25 14 -25 6z"/>
<path d="M3730 1970 c0 -5 4 -10 9 -10 6 0 13 5 16 10 3 6 -1 10 -9 10 -9 0
-16 -4 -16 -10z"/>
<path d="M676 1962 c-2 -4 4 -14 15 -20 19 -12 19 -11 9 8 -12 22 -16 24 -24
12z"/>
<path d="M4135 1961 c-6 -11 9 -23 19 -14 9 9 7 23 -3 23 -6 0 -12 -4 -16 -9z"/>
<path d="M720 1946 c0 -2 7 -7 16 -10 8 -3 12 -2 9 4 -6 10 -25 14 -25 6z"/>
<path d="M858 1933 c6 -2 18 -2 25 0 6 3 1 5 -13 5 -14 0 -19 -2 -12 -5z"/>
<path d="M4135 1920 c-3 -5 -1 -10 4 -10 6 0 11 5 11 10 0 6 -2 10 -4 10 -3 0
-8 -4 -11 -10z"/>
<path d="M1206 1905 c4 -8 11 -15 16 -15 6 0 5 6 -2 15 -7 8 -14 15 -16 15 -2
0 -1 -7 2 -15z"/>
<path d="M2120 1900 c0 -13 18 -22 24 -11 3 5 -1 11 -9 15 -8 3 -15 1 -15 -4z"/>
<path d="M885 1891 c-3 -5 -2 -12 3 -15 5 -3 9 1 9 9 0 17 -3 19 -12 6z"/>
<path d="M1624 1856 c-8 -22 3 -33 18 -18 9 9 9 15 0 24 -9 9 -13 7 -18 -6z"/>
<path d="M830 1851 c0 -6 4 -13 10 -16 6 -3 7 1 4 9 -7 18 -14 21 -14 7z"/>
<path d="M1000 1839 c0 -5 5 -7 10 -4 6 3 10 8 10 11 0 2 -4 4 -10 4 -5 0 -10
-5 -10 -11z"/>
<path d="M1186 1837 c3 -10 9 -15 12 -12 3 3 0 11 -7 18 -10 9 -11 8 -5 -6z"/>
<path d="M3646 1842 c-3 -5 1 -9 9 -9 8 0 12 4 9 9 -3 4 -7 8 -9 8 -2 0 -6 -4
-9 -8z"/>
<path d="M1545 1820 c-8 -12 2 -30 17 -30 7 0 7 5 -1 14 -9 11 -9 15 1 19 9 4
9 6 1 6 -6 1 -15 -3 -18 -9z"/>
<path d="M1583 1815 c0 -8 4 -12 9 -9 5 3 6 10 3 15 -9 13 -12 11 -12 -6z"/>
<path d="M5291 1814 c0 -11 3 -14 6 -6 3 7 2 16 -1 19 -3 4 -6 -2 -5 -13z"/>
<path d="M5320 1821 c0 -5 5 -13 10 -16 6 -3 10 -2 10 4 0 5 -4 13 -10 16 -5
3 -10 2 -10 -4z"/>
<path d="M5346 1795 c-9 -26 -7 -32 5 -12 6 10 9 21 6 23 -2 3 -7 -2 -11 -11z"/>
<path d="M5402 1790 c0 -14 2 -19 5 -12 2 6 2 18 0 25 -3 6 -5 1 -5 -13z"/>
<path d="M5452 1790 c0 -14 2 -19 5 -12 2 6 2 18 0 25 -3 6 -5 1 -5 -13z"/>
<path d="M5307 1793 c-4 -3 -7 -11 -7 -17 0 -6 5 -5 12 2 6 6 9 14 7 17 -3 3
-9 2 -12 -2z"/>
<path d="M1113 1775 c0 -8 4 -12 9 -9 5 3 6 10 3 15 -9 13 -12 11 -12 -6z"/>
<path d="M1574 1748 c-4 -7 -3 -8 4 -4 7 4 12 2 12 -4 0 -6 5 -8 10 -5 11 7 4
25 -10 25 -5 0 -12 -5 -16 -12z"/>
<path d="M1826 1727 c3 -10 9 -15 12 -12 3 3 0 11 -7 18 -10 9 -11 8 -5 -6z"/>
<path d="M5290 1687 c0 -29 4 -35 33 -44 19 -5 45 -6 65 -1 28 8 32 13 32 43
l0 35 -65 0 -65 0 0 -33z"/>
<path d="M4180 1700 c0 -5 5 -10 11 -10 5 0 7 5 4 10 -3 6 -8 10 -11 10 -2 0
-4 -4 -4 -10z"/>
<path d="M3975 1690 c-3 -5 -1 -10 4 -10 6 0 11 5 11 10 0 6 -2 10 -4 10 -3 0
-8 -4 -11 -10z"/>
<path d="M1995 1630 c3 -5 8 -10 11 -10 2 0 4 5 4 10 0 6 -5 10 -11 10 -5 0
-7 -4 -4 -10z"/>
<path d="M4935 1619 c-3 -3 3 -13 13 -20 9 -7 14 -9 10 -5 -4 5 -3 14 2 21 7
8 5 12 -6 12 -8 0 -17 -4 -19 -8z"/>
<path d="M1683 1598 c-2 -18 0 -20 7 -8 12 18 13 30 2 30 -4 0 -9 -10 -9 -22z"/>
<path d="M935 1600 c-3 -5 -1 -10 4 -10 6 0 11 5 11 10 0 6 -2 10 -4 10 -3 0
-8 -4 -11 -10z"/>
<path d="M2027 1588 c9 -10 17 -18 19 -18 1 0 0 8 -3 18 -2 10 -11 19 -19 19
-11 0 -11 -4 3 -19z"/>
<path d="M155 1559 c4 -5 -2 -9 -11 -9 -25 0 -10 -11 19 -14 19 -2 25 1 24 13
0 10 -9 18 -19 18 -10 1 -16 -2 -13 -8z"/>
<path d="M1734 1462 c23 -26 23 -26 23 -7 0 8 -3 13 -5 10 -3 -3 -12 1 -21 7
-10 8 -9 4 3 -10z"/>
<path d="M2071 1464 c0 -11 3 -14 6 -6 3 7 2 16 -1 19 -3 4 -6 -2 -5 -13z"/>
<path d="M140 1400 c0 -5 5 -10 11 -10 5 0 7 5 4 10 -3 6 -8 10 -11 10 -2 0
-4 -4 -4 -10z"/>
<path d="M2078 1403 c7 -3 16 -2 19 1 4 3 -2 6 -13 5 -11 0 -14 -3 -6 -6z"/>
<path d="M158 1373 c6 -2 18 -2 25 0 6 3 1 5 -13 5 -14 0 -19 -2 -12 -5z"/>
<path d="M1928 1333 c7 -3 16 -2 19 1 4 3 -2 6 -13 5 -11 0 -14 -3 -6 -6z"/>
<path d="M2026 1328 c3 -5 10 -6 15 -3 13 9 11 12 -6 12 -8 0 -12 -4 -9 -9z"/>
<path d="M181 1314 c0 -11 3 -14 6 -6 3 7 2 16 -1 19 -3 4 -6 -2 -5 -13z"/>
<path d="M5478 1303 c7 -3 16 -2 19 1 4 3 -2 6 -13 5 -11 0 -14 -3 -6 -6z"/>
<path d="M5290 1063 l0 -33 65 0 65 0 0 33 0 32 -65 0 -65 0 0 -32z"/>
<path d="M4170 850 c-9 -6 -10 -10 -3 -10 6 0 15 5 18 10 8 12 4 12 -15 0z"/>
<path d="M4162 794 c3 -13 -1 -25 -13 -32 -15 -9 -2095 -16 -3631 -12 -112 0
-127 2 -131 18 -3 9 -5 -101 -6 -245 l-1 -263 398 0 c218 0 753 0 1189 0 746
0 792 -1 796 -17 4 -17 5 -17 6 0 1 16 45 17 794 17 435 0 971 0 1190 0 l397
0 -1 258 c0 141 -3 251 -6 244 -4 -9 -106 -12 -473 -12 -429 1 -469 2 -483 18
-9 9 -16 21 -15 25 0 5 -4 12 -8 15 -4 4 -5 -2 -2 -14z m81 -73 c4 -1 12 -1
19 -1 6 0 9 -3 5 -6 -8 -9 -67 6 -67 17 0 6 7 6 18 0 9 -5 20 -9 25 -10z m162
-121 c-3 -5 -16 -10 -28 -9 -20 1 -20 2 3 9 14 4 26 8 28 9 2 1 0 -3 -3 -9z
m-131 -44 c-3 -9 -12 -12 -22 -9 -15 6 -9 11 25 22 1 1 0 -5 -3 -13z m-104
-46 c0 -5 -5 -10 -11 -10 -5 0 -7 5 -4 10 3 6 8 10 11 10 2 0 4 -4 4 -10z
m-293 -26 c-3 -3 -12 -4 -19 -1 -8 3 -5 6 6 6 11 1 17 -2 13 -5z m1078 -14 c3
-5 1 -10 -4 -10 -6 0 -11 5 -11 10 0 6 2 10 4 10 3 0 8 -4 11 -10z m-1408 -6
c-3 -3 -12 -4 -19 -1 -8 3 -5 6 6 6 11 1 17 -2 13 -5z m-337 -34 c-8 -5 -24
-9 -35 -9 -16 1 -16 2 5 9 35 11 48 11 30 0z m-610 -14 c0 -3 -4 -8 -10 -11
-5 -3 -10 -1 -10 4 0 6 5 11 10 11 6 0 10 -2 10 -4z m1515 -16 c-3 -5 -12 -10
-18 -10 -7 0 -6 4 3 10 19 12 23 12 15 0z m-935 -20 c0 -5 -4 -10 -10 -10 -5
0 -10 5 -10 10 0 6 5 10 10 10 6 0 10 -4 10 -10z m1627 4 c-3 -3 -12 -4 -19
-1 -8 3 -5 6 6 6 11 1 17 -2 13 -5z m-1832 -54 c3 -5 2 -10 -4 -10 -5 0 -13 5
-16 10 -3 6 -2 10 4 10 5 0 13 -4 16 -10z"/>
<path d="M2580 90 c0 -16 4 -30 8 -30 5 0 7 13 4 30 -2 17 -6 30 -8 30 -2 0
-4 -13 -4 -30z"/>
<path d="M2792 85 c0 -16 2 -22 5 -12 2 9 2 23 0 30 -3 6 -5 -1 -5 -18z"/>
<path d="M2892 85 c0 -16 2 -22 5 -12 2 9 2 23 0 30 -3 6 -5 -1 -5 -18z"/>
<path d="M2624 89 c-3 -6 -2 -15 3 -20 5 -5 9 -1 9 11 0 23 -2 24 -12 9z"/>
<path d="M2702 80 c0 -14 2 -19 5 -12 2 6 2 18 0 25 -3 6 -5 1 -5 -13z"/>
<path d="M2721 87 c0 -10 6 -20 15 -24 13 -5 13 -8 2 -15 -10 -8 -10 -9 2 -5
8 2 16 16 17 33 1 16 -1 21 -3 12 -3 -10 -9 -18 -14 -18 -5 0 -11 8 -13 18 -4
16 -5 16 -6 -1z"/>
<path d="M2864 89 c-3 -6 -2 -15 3 -20 5 -5 9 -1 9 11 0 23 -2 24 -12 9z"/>
<path d="M2914 89 c-3 -6 -2 -15 3 -20 5 -5 9 -1 10 11 2 22 -2 25 -13 9z"/>
<path d="M2771 74 c0 -11 3 -14 6 -6 3 7 2 16 -1 19 -3 4 -6 -2 -5 -13z"/>
</g>
</svg>
